# xmcd
#
# Track frame offsets:
#	150
#	23335
#	34989
#	47917
#	62933
#	75689
#	88322
#	101516
#	114248
#	126104
#	136861
#	150918
#	164453
#	176983
#	192088
#
# Disc length: 2724 seconds
#
# Revision: 4
# Processed by: cddbd v1.5.2PL0 Copyright (c) Steve Scherf et al.
# Submitted via: audiograbber 1.83.01
#
DISCID=c00aa20f
DTITLE=Various Artist - CBE1-02
DYEAR=2006
DGENRE=Country
TTITLE0=Marty Robbins - El Paso
TTITLE1=Hank Locklin - Please Help Me, I'm Falling (In Love With You)
TTITLE2=Patsy Cline - I Fall To Pieces
TTITLE3=Jimmy Dean - Big Bad John
TTITLE4=Skeeter Davis - End Of The World, The
TTITLE5=Buck Owens - Act Natrually
TTITLE6=Patsy Cline - Sweet Dreams
TTITLE7=Jim Reeves - Welcome To My World
TTITLE8=Roger Miller - King Of The Road
TTITLE9=Loretta Lynn - You Ain't Woman Enough To Take My Man
TTITLE10=Eddy Arnold - Make The World Go Away
TTITLE11=Tammi Wynette - D.I.V.O.R.C.E
TTITLE12=Johnny Cash - Folsom Prison Blues
TTITLE13=Jeannie C. Riley - Harper Valley P.T.A.
TTITLE14=Osborne Brothers - Rocky Top
EXTD=karaoke
EXTT0=
EXTT1=
EXTT2=
EXTT3=
EXTT4=
EXTT5=
EXTT6=
EXTT7=
EXTT8=
EXTT9=
EXTT10=
EXTT11=
EXTT12=
EXTT13=
EXTT14=
PLAYORDER=
